<svg id="Capa_1" enable-background="new 0 0 512 512" height="512" viewBox="0 0 512 512" width="512" xmlns="http://www.w3.org/2000/svg"><g><g><path clip-rule="evenodd" d="m185.03 127.101c16.303-35.339-41.24-66.115-92.734-74.249-40.388-6.376-55.016-42.735-62.798-42.763h-.028c-2.982 0-4.97 5.441-7.015 20.121-4.374 31.315-2.414 56.565 6.675 85.018 14.173 44.436 48.114 84.083 86.968 80.625z" fill="#ffe6b4" fill-rule="evenodd"/></g><g><path clip-rule="evenodd" d="m212.608 154.619-27.579-27.517-68.933 68.751 27.579 27.517c3.351 3.372 9.231 2.976 13.037-.822l8.293-8.275 38.485-38.4 8.293-8.275c3.808-3.797 4.177-9.635.825-12.979z" fill="#e38eba" fill-rule="evenodd"/></g><g><path clip-rule="evenodd" d="m269.896 242.159-35.816-35.736-30.589-30.55-38.485 38.4 30.618 30.549 35.815 35.736 35.787 35.736 136.814 136.51 38.485-38.4-136.814-136.51z" fill="#f1c6dd" fill-rule="evenodd"/></g><g><path clip-rule="evenodd" d="m483.879 455.638-41.354-41.234-38.485 38.4 41.354 41.234c10.566 10.571 27.891 10.571 38.485 0 10.566-10.571 10.566-27.83 0-38.4z" fill="#e38eba" fill-rule="evenodd"/></g><g><path clip-rule="evenodd" d="m465.759 86.264-39.593-39.533-61.293 29.218 35.816 35.707 35.815 35.736z" fill="#ffe6b4" fill-rule="evenodd"/></g><g><path clip-rule="evenodd" d="m465.759 86.264 36.241-75.694-75.834 36.161z" fill="#9ea6bf" fill-rule="evenodd"/></g><g><path clip-rule="evenodd" d="m269.896 242.159 130.793-130.503-35.816-35.707-130.793 130.474z" fill="#ffcd69" fill-rule="evenodd"/></g><g><path clip-rule="evenodd" d="m436.504 147.392-35.815-35.736-130.793 130.503 35.815 35.735z" fill="#ffe6b4" fill-rule="evenodd"/></g><g><path clip-rule="evenodd" d="m267.226 316.294-35.787-35.736-140.222 139.883 35.815 35.735z" fill="#ffe6b4" fill-rule="evenodd"/></g><g><path clip-rule="evenodd" d="m231.439 280.558-35.815-35.736-140.223 139.883 35.816 35.736z" fill="#ffcd69" fill-rule="evenodd"/></g><g><path clip-rule="evenodd" d="m127.032 456.176-35.815-35.736-35.815-35.736-35.901 35.821c-12.667 12.639-12.667 33.299 0 45.938l25.591 25.534c12.667 12.639 33.373 12.639 46.04 0z" fill="#f1c6dd" fill-rule="evenodd"/></g><g><path d="m443.576 154.462c.79-.79 1.465-1.743 1.948-2.752l65.496-136.822c1.83-3.823 1.051-8.384-1.943-11.383s-7.553-3.785-11.38-1.961l-137.127 65.378c-1.011.482-1.967 1.157-2.759 1.947l-123.718 123.417-16.445-16.412 1.2-1.198c3.846-3.837 6.051-9.059 6.05-14.325 0-4.899-1.857-9.449-5.228-12.812l-23.104-23.053c2.526-9.543 1.291-19.324-3.694-28.647-15.016-28.086-60.551-46.789-99.018-52.864-23.807-3.758-37.494-19.77-46.551-30.365-6.699-7.837-12.483-14.606-21.276-12.038-9.228 2.698-11.406 13.413-13.476 28.254-4.589 32.854-2.48 59.603 7.051 89.439 13.775 43.187 47.97 87.804 91.645 87.803.302 0 .608-.016.911-.02l24.425 24.371c3.354 3.374 7.899 5.237 12.801 5.248h.039c5.275 0 10.504-2.2 14.352-6.04l1.231-1.228 16.459 16.423-133.083 132.766c-.019.019-.041.035-.06.054-.018.018-.032.037-.049.055l-35.836 35.75c-8.02 8.002-12.437 18.674-12.437 30.048s4.417 22.045 12.438 30.047l25.591 25.534c8.294 8.275 19.188 12.413 30.083 12.413s21.789-4.138 30.083-12.413l169.046-168.67 129.467 129.179c.086.093.164.191.254.282.099.099.205.184.307.278l41.054 40.962c7.247 7.25 16.771 10.875 26.301 10.875 9.528 0 19.063-3.625 26.33-10.875 14.478-14.485 14.478-38.054-.011-52.549l-77.965-77.763c-3.911-3.901-10.242-3.893-14.142.018s-3.892 10.242.018 14.142l29.52 29.444-24.319 24.264-224.89-224.391 24.326-24.272 23.311 23.264c.068.073.129.15.2.221.078.078.162.144.241.219l35.44 35.369c.047.049.087.101.134.149.052.052.109.096.161.146l35.59 35.518c.023.023.041.048.064.071.025.025.052.045.077.07l36.548 36.475c1.952 1.948 4.508 2.922 7.064 2.922 2.563 0 5.125-.979 7.078-2.936 3.901-3.909 3.895-10.241-.014-14.142l-29.514-29.454 123.695-123.42c.004-.004.007-.007.01-.01zm-226.296 126.095-126.063 125.758-21.655-21.607 126.06-125.76zm-133.212 204.361c-8.799 8.779-23.115 8.779-31.914 0l-25.591-25.534c-4.232-4.223-6.563-9.866-6.563-15.89s2.331-11.667 6.563-15.89l28.84-28.772 57.471 57.343zm42.964-42.868-21.657-21.609 126.063-125.758 21.644 21.596zm315.501-13.527 34.273 34.184c6.686 6.689 6.686 17.572.01 24.251-6.725 6.709-17.648 6.715-24.359 0l-34.245-34.169zm-403.878-316.339c-8.561-26.798-10.443-50.9-6.296-80.593.255-1.828.499-3.429.73-4.832 10.405 12.142 27.524 31.216 57.647 35.971 38.455 6.074 74.782 24.362 84.5 42.539 2.969 5.554 3.401 10.724 1.338 16.142l-64.815 64.644c-32.467.267-61.117-36.286-73.104-73.871zm91.601 83.67 54.772-54.627 19.515 19.471-46.615 46.511s-.001.001-.001.001c-.001.001-.001.001-.001.001l-8.144 8.126zm277.641-91.118c-.045-.047-.083-.097-.129-.143-.05-.051-.106-.093-.157-.142l-25.642-25.575 42.123-20.083 29.592 29.548-20.109 42.008zm54.942-35.519-19.588-19.558 37.512-17.885zm-97.965 20.856 21.648 21.592-116.618 116.359-21.655-21.611zm-80.813 152.079 116.622-116.364 21.662 21.605-116.629 116.37z"/><path d="m369.604 337.191c-4.94 2.47-6.942 8.477-4.472 13.417l.028.057c1.749 3.497 5.262 5.507 8.918 5.507 1.508 0 3.041-.342 4.484-1.063 4.94-2.47 6.928-8.505 4.458-13.445s-8.475-6.943-13.416-4.473z"/></g></g></svg>